<svg xmlns="http://www.w3.org/2000/svg" fill="none" viewBox="0 0 375 812"><defs><style>@import url(https://fonts.googleapis.com/css2?family=Inter:wght@400;500;600;700&amp;display=swap);text{font-family:&apos;Inter&apos;,-apple-system,BlinkMacSystemFont,&quot;Segoe UI&quot;,Roboto,Helvetica,Arial,sans-serif}</style><filter id="shadow-m" width="120%" height="120%" x="-4" y="-4"><feDropShadow dx="0" dy="2" flood-color="#000" flood-opacity=".05" stdDeviation="3"/></filter></defs><rect width="375" height="812" fill="#f8fafc"/><path fill="#fff" d="M0 0h375v44H0z"/><rect width="22" height="11" x="336" y="17" stroke="#000" stroke-width="1" rx="2.5"/><path fill="#fff" fill-opacity=".9" d="M0 0h375v44H0z"/><text x="21" y="30" font-size="14" font-weight="600">9:41</text><rect width="375" height="60" y="44" fill="#fff"/><rect width="375" height="1" y="103" fill="#e2e8f0"/><g transform="translate(16, 60)"><rect width="24" height="2" fill="#1e293b" rx="1"/><rect width="24" height="2" y="8" fill="#1e293b" rx="1"/><rect width="24" height="2" y="16" fill="#1e293b" rx="1"/></g><text x="56" y="80" fill="#3b82f6" font-size="18" font-weight="700">CloudNav</text><g transform="translate(320, 58)"><circle cx="20" cy="20" r="16" fill="#3b82f6"/><path stroke="#fff" stroke-width="2" d="M20 14v12 M14 20h12"/></g><g><text x="0" y="14" fill="#64748b" font-size="12" font-weight="700" letter-spacing="1" transform="translate(16, 120)">置顶 / 常用</text><g><g filter="url(#shadow-m)" transform="translate(16, 120) translate(0, 30)"><rect width="165" height="64" fill="#fff" stroke="#e2e8f0" rx="12"/><rect width="40" height="40" x="12" y="12" fill="#f1f5f9" rx="8"/><text x="27" y="37" fill="#0f172a" font-size="18" font-weight="bold">G</text><text x="60" y="28" fill="#1e293b" font-size="14" font-weight="600">GitHub</text><text x="60" y="46" fill="#64748b" font-size="11">代码...</text></g><g filter="url(#shadow-m)" transform="translate(16, 120) translate(0, 30) translate(175, 0)"><rect width="165" height="64" fill="#fff" stroke="#e2e8f0" rx="12"/><rect width="40" height="40" x="12" y="12" fill="#f0fdf4" rx="8"/><text x="27" y="37" fill="#16a34a" font-size="18" font-weight="bold">C</text><text x="60" y="28" fill="#1e293b" font-size="14" font-weight="600">ChatGPT</text><text x="60" y="46" fill="#64748b" font-size="11">AI...</text></g></g><g><text x="0" y="14" fill="#64748b" font-size="12" font-weight="700" letter-spacing="1" transform="translate(16, 120) translate(0, 110)">所有链接</text><g><g filter="url(#shadow-m)" transform="translate(16, 120) translate(0, 110) translate(0, 30)"><rect width="343" height="64" fill="#fff" stroke="#e2e8f0" rx="12"/><rect width="40" height="40" x="12" y="12" fill="#eff6ff" rx="8"/><text x="64" y="28" fill="#1e293b" font-size="14" font-weight="600">Google Gemini</text><text x="64" y="46" fill="#64748b" font-size="11">Google&apos;s Generative AI</text></g></g><g><g filter="url(#shadow-m)" transform="translate(16, 120) translate(0, 110) translate(0, 104)"><rect width="343" height="64" fill="#fff" stroke="#e2e8f0" rx="12"/><rect width="40" height="40" x="12" y="12" fill="#f8fafc" rx="8"/><text x="64" y="28" fill="#1e293b" font-size="14" font-weight="600">React Docs</text><text x="64" y="46" fill="#64748b" font-size="11">Front-end library</text></g></g><g><g filter="url(#shadow-m)" transform="translate(16, 120) translate(0, 110) translate(0, 178)"><rect width="343" height="64" fill="#fff" stroke="#e2e8f0" rx="12"/><rect width="40" height="40" x="12" y="12" fill="#f8fafc" rx="8"/><text x="64" y="28" fill="#1e293b" font-size="14" font-weight="600">Tailwind CSS</text><text x="64" y="46" fill="#64748b" font-size="11">CSS Framework</text></g></g></g></g><rect width="375" height="82" y="730" fill="#fff" stroke="#e2e8f0"/><rect width="135" height="5" x="120" y="798" fill="#000" rx="2.5"/><g transform="translate(40, 750)"><rect width="24" height="24" fill="#eff6ff" rx="4"/><rect width="7" height="7" x="4" y="4" fill="#3b82f6" rx="1"/><rect width="7" height="7" x="13" y="4" fill="#3b82f6" fill-opacity=".5" rx="1"/><rect width="7" height="7" x="4" y="13" fill="#3b82f6" fill-opacity=".5" rx="1"/><rect width="7" height="7" x="13" y="13" fill="#3b82f6" fill-opacity=".5" rx="1"/></g><g transform="translate(175, 750)"><circle cx="12" cy="12" r="10" stroke="#94a3b8" stroke-width="2"/><path stroke="#94a3b8" stroke-linecap="round" stroke-width="2" d="M12 7v5l3 3"/></g><g transform="translate(310, 750)"><circle cx="12" cy="12" r="10" stroke="#94a3b8" stroke-width="2"/><circle cx="12" cy="12" r="4" fill="#94a3b8"/></g></svg>