<svg xmlns="http://www.w3.org/2000/svg" fill="none" viewBox="0 0 1280 800"><defs><style>@import url(https://fonts.googleapis.com/css2?family=Inter:wght@400;500;600;700&amp;display=swap);text{font-family:&apos;Inter&apos;,-apple-system,BlinkMacSystemFont,&quot;Segoe UI&quot;,Roboto,Helvetica,Arial,sans-serif}</style><linearGradient id="logo-gradient-dark" x1="0" x2="1" y1="0" y2="0"><stop offset="0%" stop-color="#60a5fa"/><stop offset="100%" stop-color="#a78bfa"/></linearGradient></defs><rect width="1280" height="800" fill="#0f172a" rx="12"/><path fill="#1e293b" d="M0 12C0 5.37258 5.37258 0 12 0H1280C1286.63 0 1292 5.37258 1292 12V800H0V12Z"/><circle cx="24" cy="24" r="6" fill="#ef4444"/><circle cx="44" cy="24" r="6" fill="#eab308"/><circle cx="64" cy="24" r="6" fill="#22c55e"/><g transform="translate(0, 48)"><rect width="260" height="752" fill="#1e293b"/><rect width="1" height="752" x="259" fill="#334155"/><text x="32" y="48" fill="url(#logo-gradient-dark)" font-size="20" font-weight="700">云航 CloudNav</text><g transform="translate(16, 90)"><rect width="228" height="44" fill="#1e3a8a" fill-opacity=".3" rx="8"/><rect width="20" height="20" x="16" y="12" fill="#3b82f6" rx="4"/><path stroke="#fff" stroke-width="2" d="M26 18h8 M26 22h8 M26 26h8"/><text x="48" y="27" fill="#60a5fa" font-size="14" font-weight="500">全部链接</text><circle cx="210" cy="22" r="3" fill="#60a5fa"/><g transform="translate(0, 52)"><rect width="20" height="20" x="16" y="12" fill="#334155" rx="4"/><text x="48" y="27" fill="#94a3b8" font-size="14">常用推荐</text></g><g transform="translate(0, 96)"><rect width="20" height="20" x="16" y="12" fill="#334155" rx="4"/><text x="48" y="27" fill="#94a3b8" font-size="14">开发工具</text></g></g><g transform="translate(0, 680)"><rect width="259" height="72" fill="#1e293b"/><rect width="259" height="1" fill="#334155"/><text x="32" y="42" fill="#64748b" font-size="12">已同步 · Fork 项目 v1.4</text><circle cx="16" cy="38" r="3" fill="#22c55e" transform="translate(10,0)"/></g><g transform="translate(260, 0)"><rect width="1020" height="64" fill="#1e293b" fill-opacity=".8"/><rect width="1020" height="1" y="64" fill="#334155"/><rect width="320" height="32" x="32" y="16" fill="#334155" rx="16"/><text x="70" y="37" fill="#94a3b8" font-size="14">搜索...</text><circle cx="50" cy="32" r="6" fill="none" stroke="#94a3b8" stroke-width="2"/><g transform="translate(850, 16)"><circle cx="16" cy="16" r="16" fill="#334155"/><g transform="translate(48, 0)"><rect width="80" height="32" fill="#3b82f6" rx="16"/><text x="28" y="21" fill="#fff" font-size="13" font-weight="600">添加</text><path stroke="#fff" stroke-width="2" d="M16 16h10 M21 11v10"/></g></g><g><text x="0" y="10" fill="#64748b" font-size="12" font-weight="700" letter-spacing="1" transform="translate(32, 96)">置顶 / 常用</text><g><g transform="translate(32, 96) translate(0, 30)"><rect width="180" height="64" fill="#1e293b" stroke="#334155" rx="12"/><rect width="40" height="40" x="12" y="12" fill="#334155" rx="8"/><text x="27" y="37" fill="#e2e8f0" font-size="18" font-weight="bold">G</text><text x="64" y="28" fill="#e2e8f0" font-size="14" font-weight="600">GitHub</text><text x="64" y="46" fill="#64748b" font-size="11">代码托管平台</text><circle cx="165" cy="15" r="4" fill="#3b82f6"/></g><g transform="translate(32, 96) translate(0, 30) translate(200, 0)"><rect width="180" height="64" fill="#1e293b" stroke="#334155" rx="12"/><rect width="40" height="40" x="12" y="12" fill="#064e3b" rx="8"/><text x="27" y="37" fill="#4ade80" font-size="18" font-weight="bold">C</text><text x="64" y="28" fill="#e2e8f0" font-size="14" font-weight="600">ChatGPT</text><text x="64" y="46" fill="#64748b" font-size="11">AI 助手</text><circle cx="165" cy="15" r="4" fill="#3b82f6"/></g></g><g><text x="0" y="10" fill="#64748b" font-size="12" font-weight="700" letter-spacing="1" transform="translate(32, 96) translate(0, 140)">所有链接</text><g><g transform="translate(32, 96) translate(0, 140) translate(0, 30)"><rect width="180" height="64" fill="#1e293b" stroke="#334155" rx="12"/><rect width="40" height="40" x="12" y="12" fill="#334155" rx="8"/><text x="27" y="37" fill="#94a3b8" font-size="18" font-weight="bold">R</text><text x="64" y="36" fill="#cbd5e1" font-size="14" font-weight="600">React</text></g><g transform="translate(32, 96) translate(0, 140) translate(0, 30) translate(200, 0)"><rect width="180" height="64" fill="#1e293b" stroke="#334155" rx="12"/><rect width="40" height="40" x="12" y="12" fill="#334155" rx="8"/><text x="27" y="37" fill="#94a3b8" font-size="18" font-weight="bold">T</text><text x="64" y="36" fill="#cbd5e1" font-size="14" font-weight="600">Tailwind</text></g></g></g></g></g></g></svg>